# xmcd CD database file
#
# Track frame offsets:
#	150
#	20671
#	34830
#	52972
#	67031
#	82168
#	97344
#	110827
#	129027
#	138298
#
# Disc length: 2244 seconds
#
# Revision: 4
# Processed by: cddbd v1.5.1PL2 Copyright (c) Steve Scherf et al.
# Submitted via: jetAudio 5
#
DISCID=8e08c20a
DTITLE=Neil Young - Harvest
DYEAR=1900
DGENRE=
TTITLE0=Out on the weekend
TTITLE1=
TTITLE2=
TTITLE3=
TTITLE4=
TTITLE5=
TTITLE6=
TTITLE7=
TTITLE8=
TTITLE9=
EXTD=
EXTT0=
EXTT1=
EXTT2=
EXTT3=
EXTT4=
EXTT5=
EXTT6=
EXTT7=
EXTT8=
EXTT9=
PLAYORDER=
